:FULLY-SPECIFIED
:FORCE-ALL-JOINTS-BE-3DOF
:DEGREES
442
root 1.48949 15.2316 -9.1147 5.49212 4.83139 -13.5423
lfemur -46.8501 16.8114 3.9745
ltibia 62.9553 0 0
lfoot -24.9916 -10.2701 0
ltoes -12.7255 0 0
rfemur -14.9411 -3.44768 8.90199
rtibia 38.8284 0 0
rfoot -14.6389 -13.9723 0
rtoes -49.791 0 0
lowerback 6.02945 1.6015 4.3986
upperback 1.01281 2.43843 0.924751
thorax -2.1908 1.18676 -1.7001
lowerneck -7.15866 0.0337935 5.62298
upperneck 0.687406 -0.434285 0.0690367
head 1.41974 -0.189785 -0.949097
lclavicle 2.90226e-14 6.36111e-15 0
lhumerus -39.6318 -28.4329 97.6213
lradius 54.1431 0 0
lwrist 7.92235 0 0
lhand -20.0855 -1.30814 0
lfingers 7.12502 0 0
lthumb 6.25724 28.5794 0
rclavicle 2.90226e-14 6.36111e-15 0
rhumerus -48.3514 -2.52445 -89.7222
rradius 66.3347 0 0
rwrist 12.906 0 0
rhand -30.9208 -29.1118 0
rfingers 7.12502 0 0
rthumb -4.20662 -779.05 0
443
root 1.49651 15.2365 -9.10556 5.48232 5.08527 -13.5368
lfemur -46.8834 16.824 3.82413
ltibia 62.9139 -0 0
lfoot -24.961 -10.2194 0.00204664
ltoes -12.5591 0 0
rfemur -14.8556 -3.43896 8.9317
rtibia 38.8281 -0 0
rfoot -14.3798 -13.9756 -0.0011728
rtoes -49.7771 0 0
lowerback 5.99198 1.59179 4.4051
upperback 1.00093 2.42437 0.933454
thorax -2.18294 1.17992 -1.69357
lowerneck -7.16587 0.00490931 5.60298
upperneck 0.701635 -0.471754 0.0728732
head 1.4251 -0.208292 -0.946268
lclavicle 2.84517e-14 6.1778e-15 -1.3773e-31
lhumerus -39.6817 -28.4059 97.6756
lradius 54.1268 -0 0
lwrist 7.87767 0 0
lhand -20.1113 -1.384 0.0025841
lfingers 7.12502 -0 0
lthumb 6.23234 28.5041 0.00247836
rclavicle 2.84517e-14 6.1778e-15 -1.3773e-31
rhumerus -48.3952 -2.53375 -89.662
rradius 66.3066 -0 0
rwrist 12.8902 0 0
rhand -30.9241 -29.1171 2.28666e-05
rfingers 7.12502 -0 0
rthumb -4.20981 -59.0552 2.18013e-05
444
root 1.51666 15.2506 -9.07935 5.4543 5.81367 -13.5211
lfemur -46.9792 16.8597 3.3927
ltibia 62.7952 -0 0
lfoot -24.8731 -10.0741 0.00776772
ltoes -12.0816 0 0
rfemur -14.6103 -3.41421 9.01699
rtibia 38.8272 -0 0
rfoot -13.6362 -13.9851 -0.00445459
rtoes -49.7373 0 0
lowerback 5.88446 1.56397 4.42378
upperback 0.966846 2.38406 0.958438
thorax -2.16039 1.16027 -1.67484
lowerneck -7.18648 -0.0779605 5.54564
upperneck 0.742441 -0.579253 0.083828
head 1.44046 -0.261389 -0.93816
lclavicle 2.6814e-14 5.65192e-15 -5.22722e-31
lhumerus -39.8247 -28.3281 97.8312
lradius 54.0799 -0 0
lwrist 7.7495 0 0
lhand -20.1853 -1.60163 0.0098078
lfingers 7.12502 -0 0
lthumb 6.16089 28.2879 0.00940648
rclavicle 2.6814e-14 5.65192e-15 -5.22722e-31
rhumerus -48.521 -2.56016 -89.4893
rradius 66.2258 -0 0
rwrist 12.8447 0 0
rhand -30.9336 -29.1321 8.67848e-05
rfingers 7.12502 -0 0
rthumb -4.21897 -59.0701 8.2742e-05
445
root 1.54854 15.2728 -9.03786 5.41029 6.96671 -13.4969
lfemur -47.1314 16.9148 2.70939
ltibia 62.6073 -0 0
lfoot -24.7339 -9.84401 0.0163674
ltoes -11.3258 0 0
rfemur -14.222 -3.37577 9.1522
rtibia 38.8259 -0 0
rfoot -12.4593 -14.0002 -0.00939649
rtoes -49.6743 0 0
lowerback 5.71427 1.52001 4.45346
upperback 0.912857 2.32027 0.998032
thorax -2.12471 1.12917 -1.6452
lowerneck -7.21894 -0.209181 5.45493
upperneck 0.80699 -0.749423 0.101012
head 1.46477 -0.345441 -0.925356
lclavicle 2.42216e-14 4.81952e-15 -1.10138e-30
lhumerus -40.0502 -28.2043 98.0768
lradius 54.0057 -0 0
lwrist 7.54663 0 0
lhand -20.3024 -1.94611 0.0206669
lfingers 7.12502 -0 0
lthumb 6.04774 27.9457 0.0198212
rclavicle 2.42216e-14 4.81952e-15 -1.10138e-30
rhumerus -48.7203 -2.60119 -89.2157
rradius 66.0981 -0 0
rwrist 12.7727 0 0
rhand -30.9486 -29.156 0.000182857
rfingers 7.12502 -0 0
rthumb -4.23346 -59.0936 0.000174339
446
root 1.59079 15.3023 -8.98289 5.35254 8.49436 -13.4662
lfemur -47.3342 16.9852 1.80362
ltibia 62.3584 -0 0
lfoot -24.5496 -9.53915 0.0269005
ltoes -10.3245 0 0
rfemur -13.7074 -3.32626 9.33173
rtibia 38.824 -0 0
rfoot -10.9 -14.0204 -0.0154631
rtoes -49.5908 0 0
lowerback 5.48877 1.4619 4.49297
upperback 0.84126 2.23582 1.05058
thorax -2.07746 1.08793 -1.60597
lowerneck -7.26163 -0.383118 5.33485
upperneck 0.892428 -0.974886 0.123482
head 1.49694 -0.456812 -0.908446
lclavicle 2.0787e-14 3.71666e-15 -1.81005e-30
lhumerus -40.3478 -28.039 98.4008
lradius 53.9075 -0 0
lwrist 7.27784 0 0
lhand -20.4578 -2.40254 0.0339686
lfingers 7.12502 -0 0
lthumb 5.89775 27.4924 0.0325786
rclavicle 2.0787e-14 3.71666e-15 -1.81005e-30
rhumerus -48.9846 -2.65409 -88.8531
rradius 65.9288 -0 0
rwrist 12.6774 0 0
rhand -30.9685 -29.1876 0.000300514
rfingers 7.12502 -0 0
rthumb -4.25266 -59.1249 0.000286515
447
root 1.64202 15.338 -8.91623 5.2833 10.3467 -13.4309
lfemur -47.5817 17.0663 0.704425
ltibia 62.0565 -0 0
lfoot -24.3259 -9.16945 0.0383559
ltoes -9.11014 0 0
rfemur -13.0832 -3.26838 9.54999
rtibia 38.8218 -0 0
rfoot -9.00931 -14.0452 -0.0220783
rtoes -49.4895 0 0
lowerback 5.21527 1.39165 4.54119
upperback 0.754347 2.1335 1.11444
thorax -2.02021 1.03788 -1.55845
lowerneck -7.31291 -0.594144 5.18943
upperneck 0.995926 -1.24834 0.150281
head 1.53591 -0.591867 -0.888025
lclavicle 1.66224e-14 2.37941e-15 -2.58065e-30
lhumerus -40.7065 -27.8366 98.7918
lradius 53.7883 -0 0
lwrist 6.95192 0 0
lhand -20.6463 -2.95602 0.0484369
lfingers 7.12502 -0 0
lthumb 5.71574 26.9426 0.0464546
rclavicle 1.66224e-14 2.37941e-15 -2.58065e-30
rhumerus -49.3056 -2.71599 -88.4131
rradius 65.7235 -0 0
rwrist 12.5617 0 0
rhand -30.9926 -29.226 0.000428455
rfingers 7.12502 -0 0
rthumb -4.27594 -59.1627 0.000408495
448
root 1.70086 15.379 -8.83968 5.20466 12.4739 -13.3929
lfemur -47.868 17.1539 -0.558721
ltibia 61.7098 -0 0
lfoot -24.069 -8.74487 0.0497299
ltoes -7.71584 0 0
rfemur -12.3661 -3.20483 9.80144
rtibia 38.8193 -0 0
rfoot -6.8382 -14.0738 -0.0286643
rtoes -49.3733 0 0
lowerback 4.90114 1.31126 4.59697
upperback 0.654408 2.01613 1.18796
thorax -1.95452 0.980348 -1.50393
lowerneck -7.37114 -0.836632 5.02265
upperneck 1.11463 -1.56242 0.180451
head 1.58061 -0.746973 -0.864688
lclavicle 1.18402e-14 8.4383e-16 -3.34565e-30
lhumerus -41.1157 -27.6015 99.2381
lradius 53.6515 -0 0
lwrist 6.5777 0 0
lhand -20.8629 -3.59166 0.0628045
lfingers 7.12502 -0 0
lthumb 5.50659 26.3113 0.0602341
rclavicle 1.18402e-14 8.4383e-16 -3.34565e-30
rhumerus -49.6747 -2.78403 -87.9073
rradius 65.4878 -0 0
rwrist 12.429 0 0
rhand -31.0203 -29.27 0.000555466
rfingers 7.12502 -0 0
rthumb -4.30268 -59.2062 0.000529589
449
root 1.76591 15.4244 -8.75504 5.11858 14.8259 -13.354
lfemur -48.1869 17.2437 -1.95653
ltibia 61.3266 -0 0
lfoot -23.7848 -8.27535 0.0600894
ltoes -6.1742 0 0
rfemur -11.573 -3.13825 10.0803
rtibia 38.8165 -0 0
rfoot -4.43764 -14.1057 -0.0346783
rtoes -49.2447 0 0
lowerback 4.55374 1.22273 4.65916
upperback 0.54374 1.8865 1.26947
thorax -1.88196 0.916664 -1.44374
lowerneck -7.4347 -1.10494 4.83853
upperneck 1.24572 -1.90977 0.213057
head 1.62995 -0.918492 -0.839024
lclavicle 6.55255e-15 -8.54026e-16 -4.04229e-30
lhumerus -41.5646 -27.3383 99.7282
lradius 53.5002 -0 0
lwrist 6.16388 0 0
lhand -21.1026 -4.2947 0.0758946
lfingers 7.12502 -0 0
lthumb 5.27511 25.613 0.0727882
rclavicle 6.55255e-15 -8.54026e-16 -4.04229e-30
rhumerus -50.0836 -2.85547 -87.3476
rradius 65.2271 -0 0
rwrist 12.2822 0 0
rhand -31.0509 -29.3187 0.000671127
rfingers 7.12502 -0 0
rthumb -4.33224 -59.2543 0.000639863
450
root 1.8358 15.4731 -8.66411 5.02682 17.3527 -13.3158
lfemur -48.5322 17.3318 -3.45954
ltibia 60.9148 -0 0
lfoot -23.4795 -7.77087 0.068624
ltoes -4.51796 0 0
rfemur -10.7207 -3.07101 10.3809
rtibia 38.8135 -0 0
rfoot -1.85864 -14.1402 -0.0396439
rtoes -49.1066 0 0
lowerback 4.1804 1.12804 4.72657
upperback 0.424647 1.74741 1.35732
thorax -1.80407 0.848162 -1.37916
lowerneck -7.50203 -1.39343 4.64102
upperneck 1.38636 -2.28302 0.247209
head 1.68288 -1.10279 -0.811615
lclavicle 8.71864e-16 -2.67809e-15 -4.61613e-30
lhumerus -42.043 -27.0517 100.251
lradius 53.3377 -0 0
lwrist 5.71929 0 0
lhand -21.3602 -5.04992 0.0866776
lfingers 7.12502 -0 0
lthumb 5.02633 24.8629 0.0831297
rclavicle 8.71864e-16 -2.67809e-15 -4.61613e-30
rhumerus -50.5237 -2.92777 -86.7455
rradius 64.9471 -0 0
rwrist 12.1244 0 0
rhand -31.0838 -29.3711 0.0007664
rfingers 7.12502 -0 0
rthumb -4.36399 -59.3059 0.000730697
451
root 1.90915 15.5242 -8.56868 4.93097 20.0046 -13.2797
lfemur -48.8971 17.415 -5.03814
ltibia 60.4826 -0 0
lfoot -23.1589 -7.2414 0.0746887
ltoes -2.77986 0 0
rfemur -9.82591 -3.00527 10.6973
rtibia 38.8103 -0 0
rfoot 0.847828 -14.1767 -0.0431784
rtoes -48.9617 0 0
lowerback 3.78851 1.02915 4.79797
upperback 0.299447 1.60164 1.44982
thorax -1.72242 0.776179 -1.31149
lowerneck -7.57164 -1.69642 4.43409
upperneck 1.53376 -2.67481 0.282073
head 1.73834 -1.29622 -0.783033
lclavicle -5.08958e-15 -4.59231e-15 -5.02385e-30
lhumerus -42.5405 -26.7468 100.795
lradius 53.1671 -0 0
lwrist 5.25273 0 0
lhand -21.6308 -5.84256 0.0943407
lfingers 7.12502 -0 0
lthumb 4.76511 24.0757 0.0904791
rclavicle -5.08958e-15 -4.59231e-15 -5.02385e-30
rhumerus -50.9864 -2.99867 -86.1132
rradius 64.6532 -0 0
rwrist 11.9589 0 0
rhand -31.1183 -29.426 0.000834093
rfingers 7.12502 -0 0
rthumb -4.39732 -59.3601 0.000795236
452
root 1.98459 15.5767 -8.47054 4.83246 22.7314 -13.2469
lfemur -49.2749 17.4904 -6.66259
ltibia 60.0383 -0 0
lfoot -22.8293 -6.69694 0.0778357
ltoes -0.992643 0 0
rfemur -8.90558 -2.94282 11.0237
rtibia 38.8071 -0 0
rfoot 3.63078 -14.2143 -0.0450145
rtoes -48.8126 0 0
lowerback 3.38542 0.927966 4.87209
upperback 0.170472 1.45196 1.54526
thorax -1.63856 0.702062 -1.24202
lowerneck -7.64208 -2.00824 4.22166
upperneck 1.68513 -3.07777 0.316882
head 1.79527 -1.49515 -0.753835
lclavicle -1.12195e-14 -6.56062e-15 -5.23539e-30
lhumerus -43.0473 -26.429 101.35
lradius 52.9917 -0 0
lwrist 4.77297 0 0
lhand -21.909 -6.65757 0.098317
lfingers 7.12502 -0 0
lthumb 4.49644 23.2662 0.0942925
rclavicle -1.12195e-14 -6.56062e-15 -5.23539e-30
rhumerus -51.4629 -3.06625 -85.4623
rradius 64.351 -0 0
rwrist 11.7887 0 0
rhand -31.1537 -29.4824 0.000869216
rfingers 7.12502 -0 0
rthumb -4.43159 -59.4159 0.000828723
453
root 2.06071 15.6298 -8.37151 4.73266 25.4833 -13.2184
lfemur -49.6585 17.5562 -8.30306
ltibia 59.5898 -0 0
lfoot -22.4966 -6.14746 0.0778357
ltoes 0.810943 -0 0
rfemur -7.97651 -2.88512 11.354
rtibia 38.8038 -0 0
rfoot 6.43922 -14.2522 -0.0450145
rtoes -48.6623 0 0
lowerback 2.97851 0.826392 4.94761
upperback 0.0400709 1.30113 1.64191
thorax -1.55401 0.627163 -1.17202
lowerneck -7.712 -2.32318 4.00762
upperneck 1.8377 -3.48451 0.350944
head 1.85262 -1.69593 -0.724568
lclavicle -1.74055e-14 -8.54697e-15 -5.23539e-30
lhumerus -43.5538 -26.1038 101.905
lradius 52.8147 -0 0
lwrist 4.28882 0 0
lhand -22.1898 -7.48007 0.098317
lfingers 7.12502 -0 0
lthumb 4.22529 22.4492 0.0942925
rclavicle -1.74055e-14 -8.54697e-15 -5.23539e-30
rhumerus -51.9446 -3.12896 -84.8049
rradius 64.0461 -0 0
rwrist 11.617 0 0
rhand -31.1896 -29.5394 0.000869216
rfingers 7.12502 -0 0
rthumb -4.46617 -59.4721 0.000828723
